# xmcd
#
# Track frame offsets: 
#        183
#        12218
#        21890
#        31150
#        43065
#        56525
#        67918
#        79985
#        92663
#        103638
#        115015
#        128828
#        138685
#        151228
#        160745
#        172190
#        185408
#        199653
#        209508
#        222368
#        232445
#        248583
#        259873
#
# Disc length: 3598 seconds
#
# Revision: 0
# Processed by: cddbd v1.4b42PL0 Copyright (c) Steve Scherf et al.
# Submitted via: ExactAudioCopy v0.90a11
#
DISCID=450e0c17
DTITLE=R and C Stanley - The Stanley Brothers  The Early Years 1958-1961
DTITLE=Vol.3
DYEAR=1900
DGENRE=
TTITLE0=Purple Robe
TTITLE1=When Jesus Beckons Me Home
TTITLE2=Jordan
TTITLE3=Pass Me Not
TTITLE4=Lonely Tombs
TTITLE5=Over In The Glory Land
TTITLE6=How Far To Little Rock
TTITLE7=A Few More Seasons
TTITLE8=Where We'll Never Die
TTITLE9=In Heaven We'll Never Grow Old
TTITLE10=Mother No Longer Awaits Me At Home
TTITLE11=If I Lose
TTITLE12=Little Maggie
TTITLE13=God Gave You To Me
TTITLE14=Don't Go Out Tonight
TTITLE15=The Darkest Hour Is Just Before The Dawn
TTITLE16=Rank Stranger
TTITLE17=Let The Church Roll On
TTITLE18=Rock Of Ages
TTITLE19=I Saw The Light
TTITLE20=What A Friend
TTITLE21=Gathering Flowers for the Master
TTITLE22=I'm Ready To Go
EXTD=
EXTT0=
EXTT1=
EXTT2=
EXTT3=
EXTT4=
EXTT5=
EXTT6=
EXTT7=
EXTT8=
EXTT9=
EXTT10=
EXTT11=
EXTT12=
EXTT13=
EXTT14=
EXTT15=
EXTT16=
EXTT17=
EXTT18=
EXTT19=
EXTT20=
EXTT21=
EXTT22=
PLAYORDER=
